<?xml version="1.0" encoding="utf-8"?>
<!-- Generator: Adobe Illustrator 21.1.0, SVG Export Plug-In . SVG Version: 6.00 Build 0)  -->
<!DOCTYPE svg PUBLIC "-//W3C//DTD SVG 1.1//EN" "http://www.w3.org/Graphics/SVG/1.1/DTD/svg11.dtd">
<svg version="1.1" id="Layer_1" xmlns="http://www.w3.org/2000/svg" xmlns:xlink="http://www.w3.org/1999/xlink" x="0px" y="0px"
	 viewBox="0 0 75.8 53.3" style="enable-background:new 0 0 75.8 53.3;" xml:space="preserve">
<style type="text/css">
	.st0{fill:#FFFFFF;}
	.st1{fill:#CC181E;}
</style>
<rect x="21.6" y="11.5" class="st0" width="39" height="30.2"/>
<path id="path3042_1_" class="st1" d="M38.4,0c-8.9,0-21.9,0.5-25.8,0.7C8.3,1,6.7,1.3,4.4,3.3
	C0.8,6.4,0,12.6,0,22.1v9C0,42,1.4,47.5,3.8,49.5c2.7,2.3,4.5,2.5,6.4,2.8c0.7,0.1,5.7,1,27.9,1c13.8,0,25.7-0.7,27-0.8
	c2-0.2,4.8-0.6,7-3c3.2-3.6,3.8-9.6,3.8-18.3V20.7c0-5.6-0.3-13.6-3.8-16.9c-2.6-2.2-3.6-2.9-9.1-3.1C61.3,0.6,47.8,0,38.4,0z
	 M30.2,16l20.4,10.5L30.2,37.2V16z"/>
</svg>
