<?xml version="1.0" encoding="UTF-8" standalone="no"?>
<svg width="143px" height="144px" viewBox="0 0 143 144" version="1.1" xmlns="http://www.w3.org/2000/svg" xmlns:xlink="http://www.w3.org/1999/xlink">
    <!-- Generator: Sketch 46.1 (44463) - http://www.bohemiancoding.com/sketch -->
    <title>icons / resources / solar market insight report</title>
    <desc>Created with Sketch.</desc>
    <defs>
        <polygon id="path-1" points="71.7065955 0.482761959 143.413046 0.482761959 143.413046 144.032429 71.7065955 144.032429 0.000144618441 144.032429 0.000144618441 0.482761959 71.7065955 0.482761959"></polygon>
    </defs>
    <g id="Design-Final" stroke="none" stroke-width="1" fill="none" fill-rule="evenodd">
        <g id="-resourceslanding-v1-071917" transform="translate(-377.000000, -437.000000)">
            <g id="icons" transform="translate(0.000000, 338.000000)">
                <g id="icons-/-resources-/-solar-market-insight-report" transform="translate(373.000000, 98.000000)">
                    <g transform="translate(4.000000, 0.000000)">
                        <g transform="translate(0.360465, 0.000000)">
                            <g id="Group-3" transform="translate(0.000000, 0.241019)">
                                <mask id="mask-2" fill="white">
                                    <use xlink:href="#path-1"></use>
                                </mask>
                                <g id="Clip-2"></g>
                                <path d="M142.540953,72.6465644 C142.540953,112.287329 110.437106,144.42176 70.8340686,144.42176 C31.2317547,144.42176 -0.872093023,112.287329 -0.872093023,72.6465644 C-0.872093023,33.006524 31.2317547,0.872093023 70.8340686,0.872093023 C110.437106,0.872093023 142.540953,33.006524 142.540953,72.6465644" id="Fill-1" fill="#FFFFFF" mask="url(#mask-2)"></path>
                            </g>
                            <g id="Page-1" transform="translate(34.011628, 24.418605)">
                                <path d="M55.3064475,15.5319045 L6.54566159,15.5319045 C3.1742101,15.5319045 0.441411387,18.2579887 0.441411387,21.6211565 L0.441411387,90.9101571 C0.441411387,94.273325 3.1742101,97.0002891 6.54566159,97.0002891 L55.3064475,97.0002891 C58.677899,97.0002891 61.4106977,94.273325 61.4106977,90.9101571 L61.4106977,21.6211565 C61.4106977,18.2579887 58.677899,15.5319045 55.3064475,15.5319045" id="Fill-1" fill="#D6E4EA"></path>
                                <path d="M55.3064475,15.5319045 L6.54566159,15.5319045 C3.1742101,15.5319045 0.441411387,18.2579887 0.441411387,21.6211565 L0.441411387,90.9101571 C0.441411387,94.273325 3.1742101,97.0002891 6.54566159,97.0002891 L55.3064475,97.0002891 C58.677899,97.0002891 61.4106977,94.273325 61.4106977,90.9101571 L61.4106977,21.6211565 C61.4106977,18.2579887 58.677899,15.5319045 55.3064475,15.5319045 Z" id="Stroke-3" stroke="#BAC9CE" stroke-width="3"></path>
                                <path d="M62.8707779,7.98615965 L14.109992,7.98615965 C10.7385405,7.98615965 8.00574178,10.7122439 8.00574178,14.0754117 L8.00574178,83.3644123 C8.00574178,86.7275801 10.7385405,89.4545443 14.109992,89.4545443 L62.8707779,89.4545443 C66.2422294,89.4545443 68.9750281,86.7275801 68.9750281,83.3644123 L68.9750281,14.0754117 C68.9750281,10.7122439 66.2422294,7.98615965 62.8707779,7.98615965" id="Fill-5" fill="#D6E4EA"></path>
                                <path d="M62.8707779,7.98615965 L14.109992,7.98615965 C10.7385405,7.98615965 8.00574178,10.7122439 8.00574178,14.0754117 L8.00574178,83.3644123 C8.00574178,86.7275801 10.7385405,89.4545443 14.109992,89.4545443 L62.8707779,89.4545443 C66.2422294,89.4545443 68.9750281,86.7275801 68.9750281,83.3644123 L68.9750281,14.0754117 C68.9750281,10.7122439 66.2422294,7.98615965 62.8707779,7.98615965 Z" id="Stroke-7" stroke="#BAC9CE" stroke-width="3"></path>
                                <path d="M70.4351083,0.440414833 L21.6743224,0.440414833 C18.3028709,0.440414833 15.5700722,3.16649906 15.5700722,6.52966688 L15.5700722,75.8186675 C15.5700722,79.1818353 18.3028709,81.9087995 21.6743224,81.9087995 L70.4351083,81.9087995 C73.8065597,81.9087995 76.5393585,79.1818353 76.5393585,75.8186675 L76.5393585,6.52966688 C76.5393585,3.16649906 73.8065597,0.440414833 70.4351083,0.440414833" id="Fill-9" fill="#D6E4EA"></path>
                                <path d="M70.4351083,0.440414833 L21.6743224,0.440414833 C18.3028709,0.440414833 15.5700722,3.16649906 15.5700722,6.52966688 L15.5700722,75.8186675 C15.5700722,79.1818353 18.3028709,81.9087995 21.6743224,81.9087995 L70.4351083,81.9087995 C73.8065597,81.9087995 76.5393585,79.1818353 76.5393585,75.8186675 L76.5393585,6.52966688 C76.5393585,3.16649906 73.8065597,0.440414833 70.4351083,0.440414833 Z" id="Stroke-11" stroke="#BAC9CE" stroke-width="3"></path>
                                <path d="M71.2440096,18.7801508 L71.5130553,18.7801508 L71.5130553,72.2071779 C71.5130553,74.0929101 70.5065597,75.6231427 69.2636568,75.6231427 L22.7399198,75.6231427 C21.4970168,75.6231427 20.4896391,74.0929101 20.4896391,72.2071779 L20.4905213,63.5810308 L20.4869928,63.3179258 L29.9274098,48.2734255 C30.6066399,47.1893275 31.6713553,46.9042238 32.5543545,47.5685858 L39.1464154,52.5262225 C40.0408821,53.1985041 41.1205934,52.8966813 41.7980593,51.782665 L49.2369527,39.5540038 C49.9294146,38.4153488 51.0408821,38.1276053 51.9432879,38.8535638 L57.5526704,43.3659459 C58.5582839,44.1746197 59.802069,43.7179258 60.4521893,42.3003268 L71.2440096,18.7801508 Z" id="Fill-13" fill="#FFE14F"></path>
                                <path d="M71.2440096,18.7801508 L71.5130553,18.7801508 L71.5130553,72.2071779 C71.5130553,74.0929101 70.5065597,75.6231427 69.2636568,75.6231427 L22.7399198,75.6231427 C21.4970168,75.6231427 20.4896391,74.0929101 20.4896391,72.2071779 L20.4905213,63.5810308 L20.4869928,63.3179258 L29.9274098,48.2734255 C30.6066399,47.1893275 31.6713553,46.9042238 32.5543545,47.5685858 L39.1464154,52.5262225 C40.0408821,53.1985041 41.1205934,52.8966813 41.7980593,51.782665 L49.2369527,39.5540038 C49.9294146,38.4153488 51.0408821,38.1276053 51.9432879,38.8535638 L57.5526704,43.3659459 C58.5582839,44.1746197 59.802069,43.7179258 60.4521893,42.3003268 L71.2440096,18.7801508 Z" id="Stroke-15" stroke="#D8B935" stroke-width="3"></path>
                                <path d="M71.2440096,38.902137 L71.5130553,38.902137 L71.5130553,74.007731 C71.5130553,75.2467002 70.5065597,76.2507228 69.2636568,76.2507228 L22.7399198,76.2507228 C21.4970168,76.2507228 20.4896391,75.2467002 20.4896391,74.007731 L20.4905213,68.3390949 L20.4869928,68.1666248 L29.9274098,58.2803897 C30.6066399,57.5693903 31.6713553,57.381961 32.5543545,57.8175361 L39.1464154,61.07511 C40.0408821,61.5177247 41.1205934,61.3188561 41.7980593,60.5876179 L49.2369527,52.552797 C49.9294146,51.8039598 51.0408821,51.6147706 51.9432879,52.0917033 L57.5526704,55.0571339 C58.5582839,55.5886235 59.802069,55.2876807 60.4521893,54.3566939 L71.2440096,38.902137 Z" id="Fill-17" fill="#44AEE2"></path>
                                <path d="M71.2440096,38.902137 L71.5130553,38.902137 L71.5130553,74.007731 C71.5130553,75.2467002 70.5065597,76.2507228 69.2636568,76.2507228 L22.7399198,76.2507228 C21.4970168,76.2507228 20.4896391,75.2467002 20.4896391,74.007731 L20.4905213,68.3390949 L20.4869928,68.1666248 L29.9274098,58.2803897 C30.6066399,57.5693903 31.6713553,57.381961 32.5543545,57.8175361 L39.1464154,61.07511 C40.0408821,61.5177247 41.1205934,61.3188561 41.7980593,60.5876179 L49.2369527,52.552797 C49.9294146,51.8039598 51.0408821,51.6147706 51.9432879,52.0917033 L57.5526704,55.0571339 C58.5582839,55.5886235 59.802069,55.2876807 60.4521893,54.3566939 L71.2440096,38.902137 Z" id="Stroke-19" stroke="#0079C2" stroke-width="3"></path>
                            </g>
                        </g>
                    </g>
                </g>
            </g>
        </g>
    </g>
</svg>