<?xml version="1.0" encoding="UTF-8" standalone="no"?>
<svg width="252px" height="222px" viewBox="0 0 252 222" version="1.1" xmlns="http://www.w3.org/2000/svg" xmlns:xlink="http://www.w3.org/1999/xlink">
    <!-- Generator: Sketch 46.1 (44463) - http://www.bohemiancoding.com/sketch -->
    <title>icons / resources / solar industry data page</title>
    <desc>Created with Sketch.</desc>
    <defs></defs>
    <g id="Design-Final" stroke="none" stroke-width="1" fill="none" fill-rule="evenodd">
        <g id="-resourceslanding-v1-071917" transform="translate(-89.000000, -392.000000)">
            <g id="icons" transform="translate(0.000000, 338.000000)">
                <g id="icons-/-resources-/-solar-industry-data-page" transform="translate(90.000000, 54.000000)">
                    <g>
                        <g>
                            <path d="M235,110.604708 C235,171.691263 185.52786,221.210532 124.499443,221.210532 C63.4721403,221.210532 14,171.691263 14,110.604708 C14,49.5192692 63.4721403,0 124.499443,0 C185.52786,0 235,49.5192692 235,110.604708" id="Fill-1" fill="#FFFFFF"></path>
                            <path d="M147.636746,161.822345 L149.157435,160.309087 L144.489962,162.337773 C138.180997,165.082396 131.468174,166.47299 124.537432,166.47299 C119.059872,166.47299 113.719695,165.589568 108.605727,163.869902 L108.77864,163.869902 L104.037738,162.018137 C97.6269201,159.516484 91.8935433,155.77403 86.9927556,150.892209 C82.0919679,146.012747 78.3328814,140.30176 75.820902,133.918476 L73.9614924,129.197063 L73.9614924,129.565057 C72.3353973,124.611289 71.5063612,119.447575 71.5063612,114.155299 C71.5063612,108.699077 72.3934299,103.382032 74.121378,98.2879073 L74.121378,98.4601097 L75.9796032,93.7375172 C78.4915825,87.3542329 82.2506691,81.6444252 87.1514568,76.7637839 C91.0266084,72.9045625 95.4299744,69.7695349 100.267992,67.3846493 L100.143637,67.507314 L104.812294,65.476269 C111.11889,62.7328249 117.831714,61.3422314 124.76364,61.3422314 C130.2412,61.3422314 135.581377,62.2256534 140.695346,63.9453187 L140.523617,63.9453187 L145.264519,65.795905 C151.672968,68.2987375 157.408713,72.042371 162.309501,76.9230122 C166.182284,80.7810542 169.330252,85.1651391 171.726167,89.9820891 L171.60418,89.8606038 L173.642424,94.5100692 C176.397193,100.791919 177.794711,107.477147 177.794711,114.379398 C177.794711,119.83562 176.907642,125.152665 175.180879,130.24679 L175.180879,130.074587 L173.321469,134.796 C170.808305,141.179285 167.049219,146.890272 162.149615,151.770913 C157.904951,155.998129 153.031403,159.36905 147.636746,161.822345 L147.636746,161.822345 Z M175.180879,135.335017 L196.221815,114.379398 L175.33958,93.5818274 L175.33958,63.9453187 L145.805761,63.9453187 L124.76364,42.9885198 L103.880221,63.7872699 L74.121378,63.7872699 L74.121378,93.1985001 L53.0780731,114.155299 L73.9614924,134.95287 L73.9614924,163.869902 L103.495311,163.869902 L124.537432,184.825522 L144.69959,164.747427 L175.180879,164.747427 L175.180879,135.335017 Z" id="Fill-1" fill="#FFE14F"></path>
                            <path d="M147.636746,161.822345 L149.157435,160.309087 L144.489962,162.337773 C138.180997,165.082396 131.468174,166.47299 124.537432,166.47299 C119.059872,166.47299 113.719695,165.589568 108.605727,163.869902 L108.77864,163.869902 L104.037738,162.018137 C97.6269201,159.516484 91.8935433,155.77403 86.9927556,150.892209 C82.0919679,146.012747 78.3328814,140.30176 75.820902,133.918476 L73.9614924,129.197063 L73.9614924,129.565057 C72.3353973,124.611289 71.5063612,119.447575 71.5063612,114.155299 C71.5063612,108.699077 72.3934299,103.382032 74.121378,98.2879073 L74.121378,98.4601097 L75.9796032,93.7375172 C78.4915825,87.3542329 82.2506691,81.6444252 87.1514568,76.7637839 C91.0266084,72.9045625 95.4299744,69.7695349 100.267992,67.3846493 L100.143637,67.507314 L104.812294,65.476269 C111.11889,62.7328249 117.831714,61.3422314 124.76364,61.3422314 C130.2412,61.3422314 135.581377,62.2256534 140.695346,63.9453187 L140.523617,63.9453187 L145.264519,65.795905 C151.672968,68.2987375 157.408713,72.042371 162.309501,76.9230122 C166.182284,80.7810542 169.330252,85.1651391 171.726167,89.9820891 L171.60418,89.8606038 L173.642424,94.5100692 C176.397193,100.791919 177.794711,107.477147 177.794711,114.379398 C177.794711,119.83562 176.907642,125.152665 175.180879,130.24679 L175.180879,130.074587 L173.321469,134.796 C170.808305,141.179285 167.049219,146.890272 162.149615,151.770913 C157.904951,155.998129 153.031403,159.36905 147.636746,161.822345 Z M175.180879,135.335017 L196.221815,114.379398 L175.33958,93.5818274 L175.33958,63.9453187 L145.805761,63.9453187 L124.76364,42.9885198 L103.880221,63.7872699 L74.121378,63.7872699 L74.121378,93.1985001 L53.0780731,114.155299 L73.9614924,134.95287 L73.9614924,163.869902 L103.495311,163.869902 L124.537432,184.825522 L144.69959,164.747427 L175.180879,164.747427 L175.180879,135.335017 Z" id="Stroke-3" stroke="#D8B935" stroke-width="5"></path>
                            <g id="Group-4" transform="translate(181.079298, 137.468148)">
                                <path d="M7.60169982,1.11299698 L7.60169982,6.48383419 C7.60169982,7.03720324 7.14989298,7.49031224 6.59799185,7.49031224 L1.23548157,7.49031224 C0.683027431,7.49031224 0.231220593,7.03720324 0.231220593,6.48383419 L0.231220593,1.11299698 C0.231220593,0.559627927 0.683027431,0.107072853 1.23548157,0.107072853 L6.59799185,0.107072853 C7.14989298,0.107072853 7.60169982,0.559627927 7.60169982,1.11299698" id="Fill-13" fill="#FFE14F"></path>
                                <path d="M7.60169982,1.11299698 L7.60169982,6.48383419 C7.60169982,7.03720324 7.14989298,7.49031224 6.59799185,7.49031224 L1.23548157,7.49031224 C0.683027431,7.49031224 0.231220593,7.03720324 0.231220593,6.48383419 L0.231220593,1.11299698 C0.231220593,0.559627927 0.683027431,0.107072853 1.23548157,0.107072853 L6.59799185,0.107072853 C7.14989298,0.107072853 7.60169982,0.559627927 7.60169982,1.11299698 Z" id="Stroke-15" stroke="#D8B935" stroke-width="3"></path>
                            </g>
                            <g id="Group-4" transform="translate(187.691724, 150.714901)">
                                <path d="M7.60169982,1.11299698 L7.60169982,6.48383419 C7.60169982,7.03720324 7.14989298,7.49031224 6.59799185,7.49031224 L1.23548157,7.49031224 C0.683027431,7.49031224 0.231220593,7.03720324 0.231220593,6.48383419 L0.231220593,1.11299698 C0.231220593,0.559627927 0.683027431,0.107072853 1.23548157,0.107072853 L6.59799185,0.107072853 C7.14989298,0.107072853 7.60169982,0.559627927 7.60169982,1.11299698" id="Fill-13" fill="#FFE14F"></path>
                                <path d="M7.60169982,1.11299698 L7.60169982,6.48383419 C7.60169982,7.03720324 7.14989298,7.49031224 6.59799185,7.49031224 L1.23548157,7.49031224 C0.683027431,7.49031224 0.231220593,7.03720324 0.231220593,6.48383419 L0.231220593,1.11299698 C0.231220593,0.559627927 0.683027431,0.107072853 1.23548157,0.107072853 L6.59799185,0.107072853 C7.14989298,0.107072853 7.60169982,0.559627927 7.60169982,1.11299698 Z" id="Stroke-15" stroke="#D8B935" stroke-width="3"></path>
                            </g>
                            <g id="Group-4" transform="translate(221.415095, 157.338278)">
                                <path d="M7.60169982,1.11299698 L7.60169982,6.48383419 C7.60169982,7.03720324 7.14989298,7.49031224 6.59799185,7.49031224 L1.23548157,7.49031224 C0.683027431,7.49031224 0.231220593,7.03720324 0.231220593,6.48383419 L0.231220593,1.11299698 C0.231220593,0.559627927 0.683027431,0.107072853 1.23548157,0.107072853 L6.59799185,0.107072853 C7.14989298,0.107072853 7.60169982,0.559627927 7.60169982,1.11299698" id="Fill-13" fill="#FFE14F"></path>
                                <path d="M7.60169982,1.11299698 L7.60169982,6.48383419 C7.60169982,7.03720324 7.14989298,7.49031224 6.59799185,7.49031224 L1.23548157,7.49031224 C0.683027431,7.49031224 0.231220593,7.03720324 0.231220593,6.48383419 L0.231220593,1.11299698 C0.231220593,0.559627927 0.683027431,0.107072853 1.23548157,0.107072853 L6.59799185,0.107072853 C7.14989298,0.107072853 7.60169982,0.559627927 7.60169982,1.11299698 Z" id="Stroke-15" stroke="#D8B935" stroke-width="3"></path>
                            </g>
                            <g id="Group-4" transform="translate(35.605930, 97.727888)">
                                <path d="M7.60169982,1.11299698 L7.60169982,6.48383419 C7.60169982,7.03720324 7.14989298,7.49031224 6.59799185,7.49031224 L1.23548157,7.49031224 C0.683027431,7.49031224 0.231220593,7.03720324 0.231220593,6.48383419 L0.231220593,1.11299698 C0.231220593,0.559627927 0.683027431,0.107072853 1.23548157,0.107072853 L6.59799185,0.107072853 C7.14989298,0.107072853 7.60169982,0.559627927 7.60169982,1.11299698" id="Fill-13" fill="#FFE14F"></path>
                                <path d="M7.60169982,1.11299698 L7.60169982,6.48383419 C7.60169982,7.03720324 7.14989298,7.49031224 6.59799185,7.49031224 L1.23548157,7.49031224 C0.683027431,7.49031224 0.231220593,7.03720324 0.231220593,6.48383419 L0.231220593,1.11299698 C0.231220593,0.559627927 0.683027431,0.107072853 1.23548157,0.107072853 L6.59799185,0.107072853 C7.14989298,0.107072853 7.60169982,0.559627927 7.60169982,1.11299698 Z" id="Stroke-15" stroke="#D8B935" stroke-width="3"></path>
                            </g>
                            <g id="Group-5" transform="translate(218.770125, 140.779836)">
                                <path d="M9.63970385,5.94993855 L5.84828687,9.7476345 C5.45786382,10.139258 4.81858756,10.139258 4.42816452,9.7476345 L0.636194528,5.94993855 C0.245771484,5.55886893 0.245771484,4.91908789 0.636194528,4.52801827 L4.42816452,0.7297684 C4.81858756,0.338144854 5.45786382,0.338144854 5.84828687,0.7297684 L9.63970385,4.52801827 C10.0301269,4.91908789 10.0301269,5.55886893 9.63970385,5.94993855" id="Fill-9" fill="#FFE14F"></path>
                                <path d="M9.63970385,5.94993855 L5.84828687,9.7476345 C5.45786382,10.139258 4.81858756,10.139258 4.42816452,9.7476345 L0.636194528,5.94993855 C0.245771484,5.55886893 0.245771484,4.91908789 0.636194528,4.52801827 L4.42816452,0.7297684 C4.81858756,0.338144854 5.45786382,0.338144854 5.84828687,0.7297684 L9.63970385,4.52801827 C10.0301269,4.91908789 10.0301269,5.55886893 9.63970385,5.94993855 Z" id="Stroke-11" stroke="#D8B935" stroke-width="3"></path>
                            </g>
                            <g id="Group-5" transform="translate(0.560074, 54.675940)">
                                <path d="M9.63970385,5.94993855 L5.84828687,9.7476345 C5.45786382,10.139258 4.81858756,10.139258 4.42816452,9.7476345 L0.636194528,5.94993855 C0.245771484,5.55886893 0.245771484,4.91908789 0.636194528,4.52801827 L4.42816452,0.7297684 C4.81858756,0.338144854 5.45786382,0.338144854 5.84828687,0.7297684 L9.63970385,4.52801827 C10.0301269,4.91908789 10.0301269,5.55886893 9.63970385,5.94993855" id="Fill-9" fill="#FFE14F"></path>
                                <path d="M9.63970385,5.94993855 L5.84828687,9.7476345 C5.45786382,10.139258 4.81858756,10.139258 4.42816452,9.7476345 L0.636194528,5.94993855 C0.245771484,5.55886893 0.245771484,4.91908789 0.636194528,4.52801827 L4.42816452,0.7297684 C4.81858756,0.338144854 5.45786382,0.338144854 5.84828687,0.7297684 L9.63970385,4.52801827 C10.0301269,4.91908789 10.0301269,5.55886893 9.63970385,5.94993855 Z" id="Stroke-11" stroke="#D8B935" stroke-width="3"></path>
                            </g>
                            <g id="Group-5" transform="translate(7.833742, 81.169447)">
                                <path d="M9.63970385,5.94993855 L5.84828687,9.7476345 C5.45786382,10.139258 4.81858756,10.139258 4.42816452,9.7476345 L0.636194528,5.94993855 C0.245771484,5.55886893 0.245771484,4.91908789 0.636194528,4.52801827 L4.42816452,0.7297684 C4.81858756,0.338144854 5.45786382,0.338144854 5.84828687,0.7297684 L9.63970385,4.52801827 C10.0301269,4.91908789 10.0301269,5.55886893 9.63970385,5.94993855" id="Fill-9" fill="#FFE14F"></path>
                                <path d="M9.63970385,5.94993855 L5.84828687,9.7476345 C5.45786382,10.139258 4.81858756,10.139258 4.42816452,9.7476345 L0.636194528,5.94993855 C0.245771484,5.55886893 0.245771484,4.91908789 0.636194528,4.52801827 L4.42816452,0.7297684 C4.81858756,0.338144854 5.45786382,0.338144854 5.84828687,0.7297684 L9.63970385,4.52801827 C10.0301269,4.91908789 10.0301269,5.55886893 9.63970385,5.94993855 Z" id="Stroke-11" stroke="#D8B935" stroke-width="3"></path>
                            </g>
                            <g id="Group-5" transform="translate(87.182852, 121.572044)">
                                <path d="M9.63970385,5.94993855 L5.84828687,9.7476345 C5.45786382,10.139258 4.81858756,10.139258 4.42816452,9.7476345 L0.636194528,5.94993855 C0.245771484,5.55886893 0.245771484,4.91908789 0.636194528,4.52801827 L4.42816452,0.7297684 C4.81858756,0.338144854 5.45786382,0.338144854 5.84828687,0.7297684 L9.63970385,4.52801827 C10.0301269,4.91908789 10.0301269,5.55886893 9.63970385,5.94993855" id="Fill-9" fill="#FFE14F"></path>
                                <path d="M9.63970385,5.94993855 L5.84828687,9.7476345 C5.45786382,10.139258 4.81858756,10.139258 4.42816452,9.7476345 L0.636194528,5.94993855 C0.245771484,5.55886893 0.245771484,4.91908789 0.636194528,4.52801827 L4.42816452,0.7297684 C4.81858756,0.338144854 5.45786382,0.338144854 5.84828687,0.7297684 L9.63970385,4.52801827 C10.0301269,4.91908789 10.0301269,5.55886893 9.63970385,5.94993855 Z" id="Stroke-11" stroke="#D8B935" stroke-width="3"></path>
                            </g>
                            <g id="Group-6" transform="translate(239.929888, 156.675940)">
                                <path d="M9.00726977,4.64935252 C9.00726977,2.23480226 7.05294252,0.276684528 4.64183137,0.276684528 C2.23127323,0.276684528 0.276392971,2.23480226 0.276392971,4.64935252 C0.276392971,7.06445671 2.23127323,9.02257444 4.64183137,9.02257444 C7.05294252,9.02257444 9.00726977,7.06445671 9.00726977,4.64935252" id="Fill-17" fill="#44AEE2"></path>
                                <path d="M9.00726977,4.64935252 C9.00726977,2.23480226 7.05294252,0.276684528 4.64183137,0.276684528 C2.23127323,0.276684528 0.276392971,2.23480226 0.276392971,4.64935252 C0.276392971,7.06445671 2.23127323,9.02257444 4.64183137,9.02257444 C7.05294252,9.02257444 9.00726977,7.06445671 9.00726977,4.64935252 Z" id="Stroke-19" stroke="#0079C2" stroke-width="3"></path>
                            </g>
                            <g id="Group-6" transform="translate(144.710956, 130.182434)">
                                <path d="M9.00726977,4.64935252 C9.00726977,2.23480226 7.05294252,0.276684528 4.64183137,0.276684528 C2.23127323,0.276684528 0.276392971,2.23480226 0.276392971,4.64935252 C0.276392971,7.06445671 2.23127323,9.02257444 4.64183137,9.02257444 C7.05294252,9.02257444 9.00726977,7.06445671 9.00726977,4.64935252" id="Fill-17" fill="#44AEE2"></path>
                                <path d="M9.00726977,4.64935252 C9.00726977,2.23480226 7.05294252,0.276684528 4.64183137,0.276684528 C2.23127323,0.276684528 0.276392971,2.23480226 0.276392971,4.64935252 C0.276392971,7.06445671 2.23127323,9.02257444 4.64183137,9.02257444 C7.05294252,9.02257444 9.00726977,7.06445671 9.00726977,4.64935252 Z" id="Stroke-19" stroke="#0079C2" stroke-width="3"></path>
                            </g>
                            <g id="Group-6" transform="translate(131.486105, 110.312304)">
                                <path d="M9.00726977,4.64935252 C9.00726977,2.23480226 7.05294252,0.276684528 4.64183137,0.276684528 C2.23127323,0.276684528 0.276392971,2.23480226 0.276392971,4.64935252 C0.276392971,7.06445671 2.23127323,9.02257444 4.64183137,9.02257444 C7.05294252,9.02257444 9.00726977,7.06445671 9.00726977,4.64935252" id="Fill-17" fill="#44AEE2"></path>
                                <path d="M9.00726977,4.64935252 C9.00726977,2.23480226 7.05294252,0.276684528 4.64183137,0.276684528 C2.23127323,0.276684528 0.276392971,2.23480226 0.276392971,4.64935252 C0.276392971,7.06445671 2.23127323,9.02257444 4.64183137,9.02257444 C7.05294252,9.02257444 9.00726977,7.06445671 9.00726977,4.64935252 Z" id="Stroke-19" stroke="#0079C2" stroke-width="3"></path>
                            </g>
                            <g id="Group-6" transform="translate(111.648827, 116.935680)">
                                <path d="M9.00726977,4.64935252 C9.00726977,2.23480226 7.05294252,0.276684528 4.64183137,0.276684528 C2.23127323,0.276684528 0.276392971,2.23480226 0.276392971,4.64935252 C0.276392971,7.06445671 2.23127323,9.02257444 4.64183137,9.02257444 C7.05294252,9.02257444 9.00726977,7.06445671 9.00726977,4.64935252" id="Fill-17" fill="#44AEE2"></path>
                                <path d="M9.00726977,4.64935252 C9.00726977,2.23480226 7.05294252,0.276684528 4.64183137,0.276684528 C2.23127323,0.276684528 0.276392971,2.23480226 0.276392971,4.64935252 C0.276392971,7.06445671 2.23127323,9.02257444 4.64183137,9.02257444 C7.05294252,9.02257444 9.00726977,7.06445671 9.00726977,4.64935252 Z" id="Stroke-19" stroke="#0079C2" stroke-width="3"></path>
                            </g>
                            <g id="Group-6" transform="translate(91.811550, 137.468148)">
                                <path d="M9.00726977,4.64935252 C9.00726977,2.23480226 7.05294252,0.276684528 4.64183137,0.276684528 C2.23127323,0.276684528 0.276392971,2.23480226 0.276392971,4.64935252 C0.276392971,7.06445671 2.23127323,9.02257444 4.64183137,9.02257444 C7.05294252,9.02257444 9.00726977,7.06445671 9.00726977,4.64935252" id="Fill-17" fill="#44AEE2"></path>
                                <path d="M9.00726977,4.64935252 C9.00726977,2.23480226 7.05294252,0.276684528 4.64183137,0.276684528 C2.23127323,0.276684528 0.276392971,2.23480226 0.276392971,4.64935252 C0.276392971,7.06445671 2.23127323,9.02257444 4.64183137,9.02257444 C7.05294252,9.02257444 9.00726977,7.06445671 9.00726977,4.64935252 Z" id="Stroke-19" stroke="#0079C2" stroke-width="3"></path>
                            </g>
                            <g id="Group-6" transform="translate(19.074866, 91.104512)">
                                <path d="M9.00726977,4.64935252 C9.00726977,2.23480226 7.05294252,0.276684528 4.64183137,0.276684528 C2.23127323,0.276684528 0.276392971,2.23480226 0.276392971,4.64935252 C0.276392971,7.06445671 2.23127323,9.02257444 4.64183137,9.02257444 C7.05294252,9.02257444 9.00726977,7.06445671 9.00726977,4.64935252" id="Fill-17" fill="#44AEE2"></path>
                                <path d="M9.00726977,4.64935252 C9.00726977,2.23480226 7.05294252,0.276684528 4.64183137,0.276684528 C2.23127323,0.276684528 0.276392971,2.23480226 0.276392971,4.64935252 C0.276392971,7.06445671 2.23127323,9.02257444 4.64183137,9.02257444 C7.05294252,9.02257444 9.00726977,7.06445671 9.00726977,4.64935252 Z" id="Stroke-19" stroke="#0079C2" stroke-width="3"></path>
                            </g>
                            <g id="Group-6" transform="translate(74.619243, 130.182434)">
                                <path d="M9.00726977,4.64935252 C9.00726977,2.23480226 7.05294252,0.276684528 4.64183137,0.276684528 C2.23127323,0.276684528 0.276392971,2.23480226 0.276392971,4.64935252 C0.276392971,7.06445671 2.23127323,9.02257444 4.64183137,9.02257444 C7.05294252,9.02257444 9.00726977,7.06445671 9.00726977,4.64935252" id="Fill-17" fill="#44AEE2"></path>
                                <path d="M9.00726977,4.64935252 C9.00726977,2.23480226 7.05294252,0.276684528 4.64183137,0.276684528 C2.23127323,0.276684528 0.276392971,2.23480226 0.276392971,4.64935252 C0.276392971,7.06445671 2.23127323,9.02257444 4.64183137,9.02257444 C7.05294252,9.02257444 9.00726977,7.06445671 9.00726977,4.64935252 Z" id="Stroke-19" stroke="#0079C2" stroke-width="3"></path>
                            </g>
                            <g id="Group-6" transform="translate(28.332262, 77.195421)">
                                <path d="M9.00726977,4.64935252 C9.00726977,2.23480226 7.05294252,0.276684528 4.64183137,0.276684528 C2.23127323,0.276684528 0.276392971,2.23480226 0.276392971,4.64935252 C0.276392971,7.06445671 2.23127323,9.02257444 4.64183137,9.02257444 C7.05294252,9.02257444 9.00726977,7.06445671 9.00726977,4.64935252" id="Fill-17" fill="#44AEE2"></path>
                                <path d="M9.00726977,4.64935252 C9.00726977,2.23480226 7.05294252,0.276684528 4.64183137,0.276684528 C2.23127323,0.276684528 0.276392971,2.23480226 0.276392971,4.64935252 C0.276392971,7.06445671 2.23127323,9.02257444 4.64183137,9.02257444 C7.05294252,9.02257444 9.00726977,7.06445671 9.00726977,4.64935252 Z" id="Stroke-19" stroke="#0079C2" stroke-width="3"></path>
                            </g>
                            <path d="M239.300143,176.785773 C239.300143,174.370669 237.345816,172.412551 234.934705,172.412551 C232.524147,172.412551 230.569267,174.370669 230.569267,176.785773 C230.569267,179.200323 232.524147,181.158441 234.934705,181.158441 C237.345816,181.158441 239.300143,179.200323 239.300143,176.785773 Z" id="Stroke-21" stroke="#0079C2" stroke-width="3"></path>
                            <path d="M206.238014,143.66889 C206.238014,141.253786 204.283687,139.295668 201.872576,139.295668 C199.462018,139.295668 197.507138,141.253786 197.507138,143.66889 C197.507138,146.08344 199.462018,148.041558 201.872576,148.041558 C204.283687,148.041558 206.238014,146.08344 206.238014,143.66889 Z" id="Stroke-21" stroke="#0079C2" stroke-width="3"></path>
                            <path d="M123.582692,117.175383 C123.582692,114.760279 121.628365,112.802161 119.217253,112.802161 C116.806695,112.802161 114.851815,114.760279 114.851815,117.175383 C114.851815,119.589934 116.806695,121.548051 119.217253,121.548051 C121.628365,121.548051 123.582692,119.589934 123.582692,117.175383 Z" id="Stroke-21" stroke="#0079C2" stroke-width="3"></path>
                            <path d="M64.0708597,130.422136 C64.0708597,128.007032 62.1165325,126.048915 59.7054213,126.048915 C57.2948632,126.048915 55.3399829,128.007032 55.3399829,130.422136 C55.3399829,132.836687 57.2948632,134.794804 59.7054213,134.794804 C62.1165325,134.794804 64.0708597,132.836687 64.0708597,130.422136 Z" id="Stroke-21" stroke="#0079C2" stroke-width="3"></path>
                            <path d="M26.3800327,64.1883703 C26.3800327,61.7732661 24.4257054,59.8151483 22.0145943,59.8151483 C19.6040361,59.8151483 17.6491559,61.7732661 17.6491559,64.1883703 C17.6491559,66.6029205 19.6040361,68.5610383 22.0145943,68.5610383 C24.4257054,68.5610383 26.3800327,66.6029205 26.3800327,64.1883703 Z" id="Stroke-21" stroke="#0079C2" stroke-width="3"></path>
                            <polygon id="Stroke-23" stroke="#0079C2" stroke-width="5" points="146.561168 116.844156 134.341885 116.844156 128.232244 127.443545 134.341885 138.042935 146.561168 138.042935 152.670809 127.443545"></polygon>
                            <g id="Group-7" transform="translate(4.579881, 97.636364)">
                                <polygon id="Fill-29" fill="#FFE14F" points="19.6700087 0.0368922078 6.62060684 0.0368922078 0.095905889 11.218311 6.62060684 22.3997299 19.6700087 22.3997299 26.1947097 11.218311"></polygon>
                                <polygon id="Stroke-31" stroke="#D8B935" stroke-width="5" points="19.6700087 0.0368922078 6.62060684 0.0368922078 0.095905889 11.218311 6.62060684 22.3997299 19.6700087 22.3997299 26.1947097 11.218311"></polygon>
                            </g>
                            <g id="Group-8" transform="translate(203.613898, 155.922078)">
                                <polygon id="Fill-13" fill="#44AEE2" points="17.2378331 0.137340445 5.87075828 0.137340445 0.187220865 9.89889657 5.87075828 19.6604527 17.2378331 19.6604527 22.9213705 9.89889657"></polygon>
                                <polygon id="Stroke-15" stroke="#0079C2" stroke-width="5" points="17.2378331 0.137340445 5.87075828 0.137340445 0.187220865 9.89889657 5.87075828 19.6604527 17.2378331 19.6604527 22.9213705 9.89889657"></polygon>
                            </g>
                        </g>
                    </g>
                </g>
            </g>
        </g>
    </g>
</svg>