<?xml version="1.0" encoding="utf-8"?>
<!-- Generator: Adobe Illustrator 18.0.0, SVG Export Plug-In . SVG Version: 6.00 Build 0)  -->
<!DOCTYPE svg PUBLIC "-//W3C//DTD SVG 1.1//EN" "http://www.w3.org/Graphics/SVG/1.1/DTD/svg11.dtd">
<svg version="1.1" id="Layer_1" xmlns="http://www.w3.org/2000/svg" xmlns:xlink="http://www.w3.org/1999/xlink" x="0px" y="0px"
	 viewBox="0 71 481.9 170" enable-background="new 0 71 481.9 170" xml:space="preserve">
<g>
	<path fill="#FFFFFF" d="M98.6,133.8c-1.3-7.4-7.4-19-24.5-19c-12.7,0-21.1,8.2-21.1,17.1c0,7.4,4.8,13.3,14.6,15.2l18.8,3.6
		c24.5,4.8,37.6,20.7,37.6,39.8c0,20.7-17.3,41.6-48.7,41.6c-35.7,0-51.5-23-53.6-42.2l24.4-6.5c1.1,13.3,10.4,25.3,29.5,25.3
		c14.1,0,21.9-7,21.9-16.5c0-7.8-5.9-13.9-16.3-16l-18.8-3.8C40.9,168,27,154.2,27,133.8c0-24,21.5-42.2,46.9-42.2
		c32.7,0,45.3,19.8,48.3,35L98.6,133.8z"/>
	<path fill="#FFFFFF" d="M166.3,175.4l23-3.4c5.3-0.8,7-3.4,7-6.7c0-6.7-5.1-12.2-15.8-12.2c-11,0-17.1,7-17.9,15.2l-22.4-4.8
		c1.5-14.6,15-30.8,40.1-30.8c29.7,0,40.7,16.7,40.7,35.6v46c0,5,0.6,11.6,1.1,14.8H199c-0.6-2.5-0.9-7.6-0.9-11.2
		c-4.8,7.4-13.7,13.9-27.6,13.9c-20,0-32.1-13.5-32.1-28.1C138.4,187,150.8,177.7,166.3,175.4z M196.4,191.4v-4.2l-21.1,3.2
		c-6.5,0.9-11.6,4.6-11.6,11.8c0,5.5,4,10.8,12.2,10.8C186.5,213.1,196.4,207.9,196.4,191.4z"/>
	<path fill="#FFFFFF" d="M259.1,89.3c8.7,0,15.6,7,15.6,15.8c0,8.4-6.8,15.4-15.6,15.4c-8.6,0-15.6-7-15.6-15.4
		C243.5,96.3,250.6,89.3,259.1,89.3z M246.6,229.2v-93.6h25.3v93.6H246.6z"/>
	<path fill="#FFFFFF" d="M324.2,229.2h-25.3v-93.6h24.5v11.6c5.7-9.7,16.9-14.1,27-14.1c23.2,0,33.9,16.5,33.9,37.1v58.9H359v-54.6
		c0-10.4-5.1-18.6-17.3-18.6c-11,0-17.5,8.6-17.5,19.4L324.2,229.2L324.2,229.2z"/>
	<path fill="#FFFFFF" d="M441.1,135.7H460v22.4h-18.8v39.2c0,8.2,3.8,10.8,11,10.8c3.1,0,6.5-0.4,7.8-0.8v20.9
		c-2.3,0.9-6.8,2.3-14.3,2.3c-18.3,0-29.7-10.8-29.7-28.9v-43.5h-16.9v-22.4h4.8c9.9,0,14.5-6.5,14.5-14.8v-13.1h22.8L441.1,135.7
		L441.1,135.7z"/>
</g>
</svg>
