<?xml version="1.0" encoding="utf-8"?>
<!-- Generator: Adobe Illustrator 21.1.0, SVG Export Plug-In . SVG Version: 6.00 Build 0)  -->
<!DOCTYPE svg PUBLIC "-//W3C//DTD SVG 1.1//EN" "http://www.w3.org/Graphics/SVG/1.1/DTD/svg11.dtd">
<svg version="1.1" id="Layer_1" xmlns="http://www.w3.org/2000/svg" xmlns:xlink="http://www.w3.org/1999/xlink" x="0px" y="0px"
	 viewBox="0 0 79.5 79.5" style="enable-background:new 0 0 79.5 79.5;" xml:space="preserve">
<style type="text/css">
	.st0{fill:#007BB5;}
	.st1{fill:#FFFFFF;}
</style>
<g>
	<g>
		<g>
			<path class="st0" d="M73.6,0H5.9C2.6,0,0,2.6,0,5.7v68c0,3.2,2.6,5.7,5.9,5.7h67.7c3.2,0,5.9-2.6,5.9-5.7v-68
				C79.5,2.6,76.8,0,73.6,0z"/>
			<path class="st1" d="M11.8,29.8h11.8v37.9H11.8V29.8z M17.7,10.9c3.8,0,6.8,3.1,6.8,6.8c0,3.8-3.1,6.8-6.8,6.8
				c-3.8,0-6.8-3.1-6.8-6.8C10.8,14,13.9,10.9,17.7,10.9"/>
			<path class="st1" d="M31,29.8h11.3V35h0.2c1.6-3,5.4-6.1,11.2-6.1c11.9,0,14.1,7.9,14.1,18.1v20.8H55.9V49.3
				c0-4.4-0.1-10.1-6.1-10.1c-6.1,0-7.1,4.8-7.1,9.7v18.8H31V29.8z"/>
		</g>
	</g>
</g>
</svg>
