<?xml version="1.0" encoding="utf-8"?>
<!-- Generator: Adobe Illustrator 21.1.0, SVG Export Plug-In . SVG Version: 6.00 Build 0)  -->
<svg version="1.1" id="Layer_1" xmlns="http://www.w3.org/2000/svg" xmlns:xlink="http://www.w3.org/1999/xlink" x="0px" y="0px"
	 viewBox="0 0 143 144" style="enable-background:new 0 0 143 144;" xml:space="preserve">
<style type="text/css">
	.st0{fill:#FFFFFF;}
	.st1{fill:#D6E4EA;}
	.st2{fill:none;stroke:#BAC9CE;stroke-width:3;}
	.st3{fill:#44AEE2;stroke:#0079C2;stroke-width:2;}
	.st4{fill:#FFE14F;stroke:#D8B935;stroke-width:2;}
</style>
<title>icons / resources / solar market insight report</title>
<desc>Created with Sketch.</desc>
<g id="Design-Final">
	<g id="_x2D_resourceslanding-v1-071917" transform="translate(-377.000000, -437.000000)">
		<g id="icons" transform="translate(0.000000, 338.000000)">
			<g id="icons-_x2F_-resources-_x2F_-solar-market-insight-report" transform="translate(373.000000, 98.000000)">
				<g transform="translate(4.000000, 0.000000)">
					<g transform="translate(0.360465, 0.000000)">
						<g id="Group-3" transform="translate(0.000000, 0.241019)">
							<g id="Clip-2">
							</g>
							<path id="Fill-1" class="st0" d="M142.8,72.8c0,39.6-32.1,71.8-71.7,71.8S-0.6,112.5-0.6,72.8S31.5,1,71.1,1
								S142.8,33.1,142.8,72.8"/>
						</g>
						<g id="Page-1" transform="translate(34.011628, 24.418605)">
							<path id="Fill-9" class="st1" d="M61.4,8.9H12.6c-3.4,0-6.1,2.7-6.1,6.1v69.3c0,3.4,2.7,6.1,6.1,6.1h48.8
								c3.4,0,6.1-2.7,6.1-6.1V15C67.5,11.6,64.7,8.9,61.4,8.9"/>
							<path id="Stroke-11" class="st2" d="M61.4,8.9H12.6c-3.4,0-6.1,2.7-6.1,6.1v69.3c0,3.4,2.7,6.1,6.1,6.1h48.8
								c3.4,0,6.1-2.7,6.1-6.1V15C67.5,11.6,64.7,8.9,61.4,8.9z"/>
						</g>
					</g>
				</g>
			</g>
		</g>
	</g>
</g>
<g>
	<path class="st3" d="M94.8,51.7H48.2c-1.1,0-2-0.9-2-2V39c0-1.1,0.9-2,2-2h46.6c1.1,0,2,0.9,2,2v10.7
		C96.8,50.8,95.9,51.7,94.8,51.7z"/>
	<path class="st4" d="M93.6,109.3H83.1c-1.2,0-2.2-1-2.2-2.2V95.4c0-1.2,1-2.2,2.2-2.2h10.4c1.2,0,2.2,1,2.2,2.2v11.8
		C95.8,108.3,94.8,109.3,93.6,109.3z"/>
</g>
<path id="Stroke-11_1_" class="st2" d="M95.9,59.2H47.1"/>
<path id="Stroke-11_2_" class="st2" d="M95.9,66.2H47.1"/>
<path id="Stroke-11_3_" class="st2" d="M95.8,73.2H47"/>
<path id="Stroke-11_4_" class="st2" d="M95.8,87.2H47"/>
<path id="Stroke-11_5_" class="st2" d="M95.9,80.2H47.1"/>
<path id="Stroke-11_6_" class="st2" d="M75.4,94.2H47.1"/>
<path id="Stroke-11_7_" class="st2" d="M75.4,101.2H47.1"/>
<path id="Stroke-11_10_" class="st2" d="M47.1,108.2"/>
<path id="Stroke-11_9_" class="st2" d="M75.4,108.2"/>
</svg>
