<?xml version="1.0" encoding="utf-8"?>
<!-- Generator: Adobe Illustrator 21.1.0, SVG Export Plug-In . SVG Version: 6.00 Build 0)  -->
<!DOCTYPE svg PUBLIC "-//W3C//DTD SVG 1.1//EN" "http://www.w3.org/Graphics/SVG/1.1/DTD/svg11.dtd">
<svg version="1.1" id="Layer_1" xmlns="http://www.w3.org/2000/svg" xmlns:xlink="http://www.w3.org/1999/xlink" x="0px" y="0px"
	 viewBox="0 0 78.6 63.9" style="enable-background:new 0 0 78.6 63.9;" xml:space="preserve">
<style type="text/css">
	.st0{fill:#2AA9E0;}
</style>
<path class="st0" d="M78.6,7.6c-2.9,1.3-6,2.1-9.3,2.5c3.3-2,5.9-5.2,7.1-8.9C73.3,3,69.9,4.4,66.2,5.1C63.3,2,59.1,0,54.4,0
	c-8.9,0-16.1,7.2-16.1,16.1c0,1.3,0.1,2.5,0.4,3.7C25.3,19.1,13.4,12.7,5.5,3c-1.4,2.4-2.2,5.2-2.2,8.1c0,5.6,2.8,10.5,7.2,13.4
	c-2.6-0.1-5.1-0.8-7.3-2c0,0.1,0,0.1,0,0.2c0,7.8,5.6,14.3,12.9,15.8c-1.4,0.4-2.8,0.6-4.2,0.6c-1,0-2-0.1-3-0.3
	c2.1,6.4,8,11.1,15.1,11.2c-5.5,4.3-12.5,6.9-20,6.9c-1.3,0-2.6-0.1-3.8-0.2c7.1,4.6,15.6,7.2,24.7,7.2c29.7,0,45.9-24.6,45.9-45.9
	c0-0.7,0-1.4,0-2.1C73.7,13.6,76.4,10.8,78.6,7.6z"/>
</svg>
