<?xml version="1.0" encoding="UTF-8" standalone="no"?>
<svg width="150px" height="151px" viewBox="0 0 150 151" version="1.1" xmlns="http://www.w3.org/2000/svg" xmlns:xlink="http://www.w3.org/1999/xlink">
    <!-- Generator: Sketch 46.1 (44463) - http://www.bohemiancoding.com/sketch -->
    <title>icons / resources / major solar project lists</title>
    <desc>Created with Sketch.</desc>
    <defs>
        <polygon id="path-1" points="74.7486935 0.50324277 149.497236 0.50324277 149.497236 150.142895 74.7486935 150.142895 0.000150753769 150.142895 0.000150753769 0.50324277 74.7486935 0.50324277"></polygon>
    </defs>
    <g id="Design-Final" stroke="none" stroke-width="1" fill="none" fill-rule="evenodd">
        <g id="-resourceslanding-v1-071917" transform="translate(-713.000000, -432.000000)">
            <g id="icons" transform="translate(0.000000, 338.000000)">
                <g id="icons-/-resources-/-major-solar-project-lists" transform="translate(713.000000, 94.000000)">
                    <g id="Group-3">
                        <g>
                            <g transform="translate(0.000000, 0.251244)">
                                <mask id="mask-2" fill="white">
                                    <use xlink:href="#path-1"></use>
                                </mask>
                                <g id="Clip-2"></g>
                                <path d="M149.497387,75.3226918 C149.497387,116.645185 116.031558,150.142895 74.748392,150.142895 C33.4659799,150.142895 0.000150753769,116.645185 0.000150753769,75.3226918 C0.000150753769,34.0009526 33.4659799,0.50324277 74.748392,0.50324277 C116.031558,0.50324277 149.497387,34.0009526 149.497387,75.3226918" id="Fill-1" fill="#FFFFFF" mask="url(#mask-2)"></path>
                                <g id="Page-1" mask="url(#mask-2)">
                                    <g transform="translate(29.928025, 50.783469)">
                                        <path d="M82.6356094,5.89738987 L19.2231584,5.81832008" id="Stroke-1" stroke="#BAC9CE" stroke-width="5" stroke-linecap="round"></path>
                                        <path d="M82.6356094,21.1023584 L27.2054058,21.1023584" id="Stroke-3" stroke="#BAC9CE" stroke-width="5" stroke-linecap="round"></path>
                                        <path d="M82.6356094,36.3080873 L42.5434244,36.3080873" id="Stroke-5" stroke="#BAC9CE" stroke-width="5" stroke-linecap="round"></path>
                                        <path d="M82.6356094,51.5138161 L54.6867195,51.5138161" id="Stroke-7" stroke="#BAC9CE" stroke-width="5" stroke-linecap="round"></path>
                                        <g id="Group-5" stroke="none" stroke-width="1" fill-rule="evenodd" transform="translate(7.272727, 14.545455)">
                                            <path d="M13.2528779,8.16658233 L8.04035401,13.3791062 C7.50359178,13.9166287 6.62470065,13.9166287 6.08793843,13.3791062 L0.874654294,8.16658233 C0.337892067,7.6298201 0.337892067,6.75168926 0.874654294,6.21492703 L6.08793843,1.0016429 C6.62470065,0.464120388 7.50359178,0.464120388 8.04035401,1.0016429 L13.2528779,6.21492703 C13.7896401,6.75168926 13.7896401,7.6298201 13.2528779,8.16658233" id="Fill-9" fill="#FFE14F"></path>
                                            <path d="M13.2528779,8.16658233 L8.04035401,13.3791062 C7.50359178,13.9166287 6.62470065,13.9166287 6.08793843,13.3791062 L0.874654294,8.16658233 C0.337892067,7.6298201 0.337892067,6.75168926 0.874654294,6.21492703 L6.08793843,1.0016429 C6.62470065,0.464120388 7.50359178,0.464120388 8.04035401,1.0016429 L13.2528779,6.21492703 C13.7896401,6.75168926 13.7896401,7.6298201 13.2528779,8.16658233 Z" id="Stroke-11" stroke="#D8B935" stroke-width="3"></path>
                                        </g>
                                        <g id="Group-4" stroke="none" stroke-width="1" fill-rule="evenodd" transform="translate(37.272727, 46.363636)">
                                            <path d="M10.4509849,1.52764292 L10.4509849,8.89938026 C10.4509849,9.65890641 9.82983085,10.2808207 9.07106498,10.2808207 L1.69856736,10.2808207 C0.939041204,10.2808207 0.317887181,9.65890641 0.317887181,8.89938026 L0.317887181,1.52764292 C0.317887181,0.768116762 0.939041204,0.146962739 1.69856736,0.146962739 L9.07106498,0.146962739 C9.82983085,0.146962739 10.4509849,0.768116762 10.4509849,1.52764292" id="Fill-13" fill="#FFE14F"></path>
                                            <path d="M10.4509849,1.52764292 L10.4509849,8.89938026 C10.4509849,9.65890641 9.82983085,10.2808207 9.07106498,10.2808207 L1.69856736,10.2808207 C0.939041204,10.2808207 0.317887181,9.65890641 0.317887181,8.89938026 L0.317887181,1.52764292 C0.317887181,0.768116762 0.939041204,0.146962739 1.69856736,0.146962739 L9.07106498,0.146962739 C9.82983085,0.146962739 10.4509849,0.768116762 10.4509849,1.52764292 Z" id="Stroke-15" stroke="#D8B935" stroke-width="3"></path>
                                        </g>
                                        <g id="Group-6" stroke="none" stroke-width="1" fill-rule="evenodd">
                                            <path d="M12.3833935,6.38146425 C12.3833935,3.06737565 9.69654122,0.379763078 6.38169233,0.379763078 C3.06760374,0.379763078 0.379991164,3.06737565 0.379991164,6.38146425 C0.379991164,9.69631313 3.06760374,12.3839257 6.38169233,12.3839257 C9.69654122,12.3839257 12.3833935,9.69631313 12.3833935,6.38146425" id="Fill-17" fill="#44AEE2"></path>
                                            <path d="M12.3833935,6.38146425 C12.3833935,3.06737565 9.69654122,0.379763078 6.38169233,0.379763078 C3.06760374,0.379763078 0.379991164,3.06737565 0.379991164,6.38146425 C0.379991164,9.69631313 3.06760374,12.3839257 6.38169233,12.3839257 C9.69654122,12.3839257 12.3833935,9.69631313 12.3833935,6.38146425 Z" id="Stroke-19" stroke="#0079C2" stroke-width="3"></path>
                                        </g>
                                        <path d="M35.49785,36.6926401 C35.49785,33.3777913 32.8109977,30.6901787 29.4961488,30.6901787 C26.1820602,30.6901787 23.4944477,33.3777913 23.4944477,36.6926401 C23.4944477,40.0067287 26.1820602,42.6943413 29.4961488,42.6943413 C32.8109977,42.6943413 35.49785,40.0067287 35.49785,36.6926401 Z" id="Stroke-21" stroke="#0079C2" stroke-width="3"></path>
                                    </g>
                                </g>
                            </g>
                        </g>
                    </g>
                </g>
            </g>
        </g>
    </g>
</svg>